<svg width="25" height="24" viewBox="0 0 25 24" fill="none" xmlns="http://www.w3.org/2000/svg">
<g id="ChevronDown">
<path id="Vector" d="M18.3772 9.56699C18.5774 9.36681 18.5814 9.04625 18.3861 8.85099L17.679 8.14388C17.4837 7.94862 17.1632 7.9526 16.963 8.15278L12.3757 12.7401L7.7887 8.15308C7.58831 7.95269 7.26757 7.94853 7.07231 8.1438L6.36521 8.8509C6.16994 9.04616 6.1741 9.3669 6.37449 9.56729L12.0221 15.2149C12.1225 15.3153 12.2559 15.363 12.3891 15.3585C12.5132 15.3562 12.6356 15.3084 12.7292 15.2149L12.73 15.214C12.7327 15.2114 12.7354 15.2088 12.7381 15.2061L18.3772 9.56699Z" fill="#2D2D2D"/>
</g>
</svg>
